<?xml version="1.0" encoding="iso-8859-1"?>
<!-- Generator: Adobe Illustrator 16.0.0, SVG Export Plug-In . SVG Version: 6.00 Build 0)  -->
<!DOCTYPE svg PUBLIC "-//W3C//DTD SVG 1.1//EN" "http://www.w3.org/Graphics/SVG/1.1/DTD/svg11.dtd">
<svg version="1.1" id="Capa_1" xmlns="http://www.w3.org/2000/svg" xmlns:xlink="http://www.w3.org/1999/xlink" x="0px" y="0px"
	 width="234.42px" height="234.42px" viewBox="0 0 234.42 234.42" style="enable-background:new 0 0 234.42 234.42;"
	 xml:space="preserve">
<g>
	<g id="_x31_71_20_">
		<path d="M234.42,51.402v-6.566H0v6.566h29.135V71.61H0v90.944h27.507v20.211H0v6.819h234.42v-6.819h-30.768v-20.211h30.768V71.604
			h-29.138V51.397h29.138V51.402z M79.47,51.402h32.728V71.61H79.47V51.402z M141.081,113.006c3.229,1.998,4.677,7.238,0.727,9.514
			c-10.613,6.144-21.236,12.273-31.847,18.412c-3.339,1.93-8.6,0.3-8.6-4.179c0.051-12.659,0.071-25.332,0.082-37.994
			c0.018-1.201,0.417-2.173,0.937-2.991c1.097-2.438,3.592-3.979,6.484-2.526c0.135,0.051,0.229,0.104,0.343,0.135
			c0.036,0.015,0.068,0.015,0.109,0.03c0.043,0.033,0.079,0.053,0.124,0.073c0.579,0.214,1.082,0.531,1.514,0.952
			C120.998,100.636,131.042,106.818,141.081,113.006z M69.444,182.754H36.722v-20.205h32.722V182.754z M71.071,71.604H38.344V51.397
			h32.728V71.604z M110.565,182.754H77.843v-20.205h32.723V182.754z M152.507,182.754h-32.728v-20.205h32.728V182.754z
			 M154.137,71.604h-32.723V51.397h32.723V71.604z M194.446,182.754h-32.733v-20.205h32.733V182.754z M196.07,71.604h-32.727V51.397
			h32.727V71.604z"/>
	</g>
</g>
<g>
</g>
<g>
</g>
<g>
</g>
<g>
</g>
<g>
</g>
<g>
</g>
<g>
</g>
<g>
</g>
<g>
</g>
<g>
</g>
<g>
</g>
<g>
</g>
<g>
</g>
<g>
</g>
<g>
</g>
</svg>
